<?xml version="1.0" encoding="UTF-8" standalone="no"?>
<!-- Created with Inkscape (http://www.inkscape.org/) -->

<svg
   xmlns:dc="http://purl.org/dc/elements/1.1/"
   xmlns:cc="http://creativecommons.org/ns#"
   xmlns:rdf="http://www.w3.org/1999/02/22-rdf-syntax-ns#"
   xmlns:svg="http://www.w3.org/2000/svg"
   xmlns="http://www.w3.org/2000/svg"
   xmlns:sodipodi="http://sodipodi.sourceforge.net/DTD/sodipodi-0.dtd"
   xmlns:inkscape="http://www.inkscape.org/namespaces/inkscape"
   width="45"
   height="45"
   id="svg3128"
   sodipodi:version="0.32"
   inkscape:version="0.48.0 r9654"
   version="1.0"
   sodipodi:docname="white-queen.svg"
   inkscape:output_extension="org.inkscape.output.svg.inkscape">
  <defs
     id="defs3130">
    <inkscape:perspective
       sodipodi:type="inkscape:persp3d"
       inkscape:vp_x="0 : 22.5 : 1"
       inkscape:vp_y="0 : 1000 : 0"
       inkscape:vp_z="45 : 22.5 : 1"
       inkscape:persp3d-origin="22.5 : 15 : 1"
       id="perspective17" />
  </defs>
  <sodipodi:namedview
     id="base"
     pagecolor="#ffffff"
     bordercolor="#666666"
     borderopacity="1.0"
     gridtolerance="10000"
     guidetolerance="10"
     objecttolerance="10"
     inkscape:pageopacity="0.0"
     inkscape:pageshadow="2"
     inkscape:zoom="11.313709"
     inkscape:cx="45.61195"
     inkscape:cy="24.289942"
     inkscape:document-units="px"
     inkscape:current-layer="layer1"
     height="45px"
     width="45px"
     inkscape:grid-points="true"
     showgrid="true"
     inkscape:window-width="1264"
     inkscape:window-height="764"
     inkscape:window-x="110"
     inkscape:window-y="0"
     inkscape:window-maximized="0">
    <inkscape:grid
       id="GridFromPre046Settings"
       type="xygrid"
       originx="0px"
       originy="0px"
       spacingx="0.5px"
       spacingy="0.5px"
       color="#0000ff"
       empcolor="#0000ff"
       opacity="0.2"
       empopacity="0.4"
       empspacing="5" />
  </sodipodi:namedview>
  <metadata
     id="metadata3133">
    <rdf:RDF>
      <cc:Work
         rdf:about="">
        <dc:format>image/svg+xml</dc:format>
        <dc:type
           rdf:resource="http://purl.org/dc/dcmitype/StillImage" />
      </cc:Work>
    </rdf:RDF>
  </metadata>
  <g
     inkscape:label="Layer 1"
     inkscape:groupmode="layer"
     id="layer1">
    <g
       id="g2994">
      <path
         transform="translate(-1,-0.75)"
         d="m 9,13 a 2,2 0 1 1 -4,0 2,2 0 1 1 4,0 z"
         sodipodi:ry="2"
         sodipodi:rx="2"
         sodipodi:cy="13"
         sodipodi:cx="7"
         id="path5571"
         style="fill:#ffffff;fill-opacity:1;stroke:#000000;stroke-width:1.5;stroke-linecap:round;stroke-linejoin:round;stroke-miterlimit:4;stroke-opacity:1;stroke-dasharray:none"
         sodipodi:type="arc" />
      <path
         transform="translate(15.5,-5.25)"
         d="m 9,13 a 2,2 0 1 1 -4,0 2,2 0 1 1 4,0 z"
         sodipodi:ry="2"
         sodipodi:rx="2"
         sodipodi:cy="13"
         sodipodi:cx="7"
         id="path5573"
         style="fill:#ffffff;fill-opacity:1;stroke:#000000;stroke-width:1.5;stroke-linecap:round;stroke-linejoin:round;stroke-miterlimit:4;stroke-opacity:1;stroke-dasharray:none"
         sodipodi:type="arc" />
      <path
         transform="translate(32,-0.75)"
         d="m 9,13 a 2,2 0 1 1 -4,0 2,2 0 1 1 4,0 z"
         sodipodi:ry="2"
         sodipodi:rx="2"
         sodipodi:cy="13"
         sodipodi:cx="7"
         id="path5575"
         style="fill:#ffffff;fill-opacity:1;stroke:#000000;stroke-width:1.5;stroke-linecap:round;stroke-linejoin:round;stroke-miterlimit:4;stroke-opacity:1;stroke-dasharray:none"
         sodipodi:type="arc" />
      <path
         transform="translate(7,-4.25)"
         d="m 9,13 a 2,2 0 1 1 -4,0 2,2 0 1 1 4,0 z"
         sodipodi:ry="2"
         sodipodi:rx="2"
         sodipodi:cy="13"
         sodipodi:cx="7"
         id="path5577"
         style="fill:#ffffff;fill-opacity:1;stroke:#000000;stroke-width:1.5;stroke-linecap:round;stroke-linejoin:round;stroke-miterlimit:4;stroke-opacity:1;stroke-dasharray:none"
         sodipodi:type="arc" />
      <path
         transform="translate(24,-3.75)"
         d="m 9,13 a 2,2 0 1 1 -4,0 2,2 0 1 1 4,0 z"
         sodipodi:ry="2"
         sodipodi:rx="2"
         sodipodi:cy="13"
         sodipodi:cx="7"
         id="path5579"
         style="fill:#ffffff;fill-opacity:1;stroke:#000000;stroke-width:1.5;stroke-linecap:round;stroke-linejoin:round;stroke-miterlimit:4;stroke-opacity:1;stroke-dasharray:none"
         sodipodi:type="arc" />
      <path
         inkscape:connector-curvature="0"
         sodipodi:nodetypes="cccccccccccc"
         id="path5581"
         d="m 9,26.25 c 8.5,-1.5 21,-1.5 27,0 l 2,-12 -7,11 0,-14 -5.5,13.5 -3,-15 -3,15 -5.5,-14 0,14.5 -7,-11 2,12 z"
         style="fill:#ffffff;fill-opacity:1;fill-rule:evenodd;stroke:#000000;stroke-width:1.5;stroke-linecap:butt;stroke-linejoin:round;stroke-miterlimit:4;stroke-opacity:1;stroke-dasharray:none" />
      <path
         inkscape:connector-curvature="0"
         sodipodi:nodetypes="ccccccccccc"
         id="path5583"
         d="m 9,26.25 c 0,2 1.5,2 2.5,4 1,1.5 1,1 0.5,3.5 -1.5,1 -1.5,2.5 -1.5,2.5 -1.5,1.5 0.5,2.5 0.5,2.5 6.5,1 16.5,1 23,0 0,0 1.5,-1 0,-2.5 0,0 0.5,-1.5 -1,-2.5 -0.5,-2.5 -0.5,-2 0.5,-3.5 1,-2 2.5,-2 2.5,-4 -8.5,-1.5 -18.5,-1.5 -27,0 z"
         style="fill:#ffffff;fill-opacity:1;fill-rule:evenodd;stroke:#000000;stroke-width:1.5;stroke-linecap:butt;stroke-linejoin:round;stroke-miterlimit:4;stroke-opacity:1;stroke-dasharray:none" />
      <path
         inkscape:connector-curvature="0"
         sodipodi:nodetypes="cc"
         id="path5585"
         d="m 11.5,30.25 c 3.5,-1 18.5,-1 22,0"
         style="fill:none;stroke:#000000;stroke-width:1px;stroke-linecap:round;stroke-linejoin:round;stroke-opacity:1" />
      <path
         inkscape:connector-curvature="0"
         sodipodi:nodetypes="cc"
         id="path5587"
         d="m 12,33.75 c 6,-1 15,-1 21,0"
         style="fill:none;stroke:#000000;stroke-width:1px;stroke-linecap:round;stroke-linejoin:round;stroke-opacity:1" />
      <path
         inkscape:connector-curvature="0"
         sodipodi:nodetypes="cc"
         id="path5589"
         d="m 10.5,36.25 c 5,-1 18.5,-1 23.5,0"
         style="fill:none;stroke:#000000;stroke-width:1px;stroke-linecap:round;stroke-linejoin:round;stroke-opacity:1" />
    </g>
  </g>
</svg>
